<svg
  width="224"
  height="387"
  viewBox="0 0 224 387"
  fill="none"
  xmlns="http://www.w3.org/2000/svg"
>
  <mask
    id="mask0_16_98"
    style="mask-type:alpha"
    maskUnits="userSpaceOnUse"
    x="0"
    y="0"
    width="524"
    height="387"
  >
    <g clip-path="url(#clip0_16_98)">
      <g clip-path="url(#clip1_16_98)">
        <path
          d="M246.507 372.053C203.524 251.775 160.54 131.496 117.737 11.1574C116.107 6.61742 113.813 5.16463 109.225 5.16463C80.3681 5.34623 51.5715 5.34623 22.7144 5.16463C17.6433 5.1041 15.6511 6.67795 15.6511 11.8232C15.5304 20.2373 15.1078 28.6513 12.2704 36.8232C-3.84851 83.1913 -19.8467 129.559 -35.9052 175.927C-58.7856 241.666 -81.6659 307.465 -104.546 373.264C-107.384 381.375 -106.418 382.889 -98.5093 382.949C-77.923 382.949 -57.3367 382.768 -36.7504 383.07C-30.7737 383.191 -28.057 380.77 -26.3063 375.322C-18.2167 349.596 -9.7648 323.99 -1.79591 298.203C-0.407394 293.663 1.6452 292.695 5.99186 292.695C47.1645 292.876 88.3371 292.876 129.57 292.695C133.615 292.695 134.943 294.027 136.15 297.538C144.844 323.445 153.779 349.293 162.472 375.201C164.042 379.862 166.637 381.738 171.527 381.617C183.119 381.375 194.71 381.557 206.361 381.557C217.59 381.557 228.819 381.557 240.048 381.557C248.681 381.557 249.466 380.407 246.507 372.053ZM106.388 221.085C79.8248 220.782 53.2619 220.964 26.6989 220.964C25.0689 220.964 23.3785 220.964 21.507 220.964C36.177 171.085 52.8996 122.295 65.9396 70.5399C70.8296 87.4891 75.0556 102.985 79.8248 118.3C89.8463 150.625 100.17 182.889 110.493 215.153C111.881 219.45 111.942 221.145 106.388 221.085Z"
          fill="white"
        />
      </g>
    </g>
  </mask>
  <g mask="url(#mask0_16_98)">
    <rect
      width="513"
      height="448"
      transform="matrix(-1 0 0 1 262 -21)"
      fill="url(#paint0_linear_16_98)"
    />
  </g>
  <defs>
    <linearGradient
      id="paint0_linear_16_98"
      x1="-575.657"
      y1="448"
      x2="256.5"
      y2="448"
      gradientUnits="userSpaceOnUse"
    >
      <stop stop-color="#D9D9D9" />
      <stop offset="1" stop-color="#737373" stop-opacity="0" />
    </linearGradient>
    <clipPath id="clip0_16_98">
      <rect width="524" height="387" fill="white" transform="matrix(-1 0 0 1 524 0)" />
    </clipPath>
    <clipPath id="clip1_16_98">
      <rect width="652" height="400" fill="white" transform="translate(-123 -9)" />
    </clipPath>
  </defs>
</svg>