<svg
  width="262"
  height="387"
  viewBox="0 0 262 387"
  fill="none"
  xmlns="http://www.w3.org/2000/svg"
>
  <mask
    id="mask0_16_97"
    style="mask-type:alpha"
    maskUnits="userSpaceOnUse"
    x="-262"
    y="0"
    width="524"
    height="387"
  >
    <g clip-path="url(#clip0_16_97)">
      <path
        d="M259.454 314.755C258.727 314.029 257.636 313.303 256.182 312.94L15.0909 193.863C95.8181 153.929 176.182 113.994 256.909 74.06C259.818 72.6079 261.636 70.0666 261.636 66.7992V17.4259C261.273 15.2477 259.455 13.7955 257.273 14.1585C256.909 14.1585 256.909 14.1585 256.545 14.1585C256.182 14.1585 256.182 14.1585 255.818 14.5216L168.182 57.7233C166 48.2842 162.364 39.2083 156.909 31.2214C144.545 13.4325 124.909 2.17823 103.091 0.363037H-194.364C-215.091 1.08912 -233.636 10.8912 -246 25.7758C-247.455 27.591 -248.545 29.0431 -249.636 30.8583C-250.727 32.6735 -251.818 34.1257 -252.909 35.9409C-254 37.7561 -254.727 39.5713 -255.818 41.3865C-256.545 43.2017 -257.636 45.0169 -258.364 47.1951C-260.182 52.2777 -261.273 57.3602 -262 62.8058C-262 73.334 -262 83.8621 -262 94.3902C-262 99.8358 -262 104.918 -262 110.364C-262 113.994 -259.818 117.625 -256.182 119.077C-212.182 140.859 -167.818 162.642 -123.818 184.424C-118 187.328 -112.182 190.233 -106.364 193.137C-106.364 193.137 -106.364 193.137 -106 193.137C-155.455 217.824 -204.909 242.51 -254.727 267.197C-258.727 268.286 -261.273 271.917 -262 275.91V323.468C-260.545 337.627 -255.091 350.333 -246.727 360.861C-245.636 362.313 -244.182 363.766 -242.727 365.218C-232.182 376.109 -218 383.733 -201.636 386.274C-195.455 387 -189.273 386.637 -182.727 386.637H95.0909C101.636 387 108.545 386.274 115.091 384.822C133.636 380.465 149.636 368.485 159.818 352.511C160.545 351.422 161.273 350.333 161.636 349.244C164.909 342.709 167.454 336.174 169.273 329.277C179.818 334.722 190.727 340.168 201.636 345.614C208.909 349.244 216.182 352.874 223.454 356.142C230.727 359.772 238 363.402 244.909 366.67C248.545 368.485 252.182 370.3 255.818 372.115L256.182 372.478C256.545 372.478 256.545 372.478 256.909 372.841C257.636 373.205 258.364 373.205 259.091 372.841C259.818 372.841 260.182 372.478 260.909 372.115C261.273 372.115 261.273 371.752 261.636 371.389C262 371.026 262 370.663 262 370.663C262 370.3 262 370.3 262.364 369.937C262.364 369.574 262.364 369.211 262.364 369.211V320.201C261.636 318.023 260.909 316.207 259.454 314.755ZM-208.545 82.773C-208.182 76.2383 -209.636 69.3405 -206.727 63.5319C-203.455 57.3602 -196.909 53.3668 -190 53.7298H98C103.091 53.7298 107.818 55.9081 111.091 59.1754C113.636 61.7167 115.454 65.3471 116.182 69.3405C116.182 69.7036 116.182 70.0666 116.182 70.4296C116.545 74.4231 116.182 78.0535 116.182 82.0469C116.182 82.773 116.182 83.136 116.182 83.8621C62.3636 110.364 8.54541 137.229 -45.2728 163.731C-99.8182 136.866 -154 109.638 -208.545 82.773ZM114 324.557C110.727 330.003 104.909 333.633 98.3636 333.633H-190C-191.818 333.633 -193.636 333.633 -195.455 332.907C-200.182 331.455 -204.182 328.551 -206.727 323.831C-210 317.659 -208.545 310.762 -208.545 304.227C-154.364 277.362 -100.182 250.497 -45.6364 223.632C8.54544 249.771 62.3636 276.999 116.182 303.501C115.818 310.762 117.636 318.386 114 324.557Z"
        fill="white"
      />
    </g>
  </mask>
  <g mask="url(#mask0_16_97)">
    <rect x="-69" y="-21" width="513" height="448" fill="url(#paint0_linear_16_97)" />
  </g>
  <defs>
    <linearGradient
      id="paint0_linear_16_97"
      x1="-644.657"
      y1="427"
      x2="187.5"
      y2="427"
      gradientUnits="userSpaceOnUse"
    >
      <stop stop-color="#D9D9D9" />
      <stop offset="1" stop-color="#737373" stop-opacity="0" />
    </linearGradient>
    <clipPath id="clip0_16_97">
      <rect width="524" height="387" fill="white" transform="translate(-262)" />
    </clipPath>
  </defs>
</svg>