<svg width="88" height="724" viewBox="0 0 88 724" fill="none" xmlns="http://www.w3.org/2000/svg"><mask id="mask0_28_8" style="mask-type:alpha" maskUnits="userSpaceOnUse" x="0" y="0" width="126" height="724"><rect width="126" height="724" fill="url(#paint0_linear_28_8)"/></mask><g mask="url(#mask0_28_8)"><path d="M14.0757 40.326L115.794 40.326L115.794 89.9744L64.9351 129.633L115.794 169.367L115.794 218.939L14.0757 218.939L14.0757 179.281L68.3408 179.281L14.0757 139.547L14.0757 119.718L68.3408 79.9842L14.0757 79.9842L14.0757 40.326ZM13.9243 238.998L115.643 238.998L115.643 358.049L89.6079 358.049L89.6079 278.657L76.5903 278.657L76.5903 358.049L53.0527 358.049L53.0527 278.657L40.0351 278.657L40.0351 358.049L13.9243 358.049L13.9243 238.998ZM64.7837 475.286C75.0766 475.286 83.4018 469.458 83.4018 459.165L83.4018 415.723L46.1655 415.723L46.1655 459.165C46.1655 469.458 54.5664 475.286 64.7837 475.286ZM115.643 376.064L115.643 466.582C116.021 494.509 92.5595 515.247 64.7837 515.02C37.1592 515.247 13.5459 494.509 13.9243 466.582L13.9243 376.064L115.643 376.064ZM115.794 523.726L115.794 563.384L14.0757 563.384L14.0757 523.726L115.794 523.726ZM86.2021 641.493L56.1557 627.491L56.1557 655.419L86.2021 641.493ZM13.9243 563.312L115.643 617.88L115.643 665.03L13.9243 719.598L13.9243 674.945L31.3315 666.923L31.3315 615.987L13.9243 607.965L13.9243 563.312Z" fill="white" fill-opacity="0.2"/></g><defs><linearGradient id="paint0_linear_28_8" x1="126" y1="362" x2="0" y2="362" gradientUnits="userSpaceOnUse"><stop stop-color="#D9D9D9"/><stop offset="1" stop-color="#737373" stop-opacity="0"/></linearGradient></defs></svg>