<svg width="78" height="728" viewBox="0 0 78 728" fill="none" xmlns="http://www.w3.org/2000/svg"><mask id="mask0_28_6" style="mask-type:alpha" maskUnits="userSpaceOnUse" x="-76" y="0" width="154" height="728"><rect x="-76" width="154" height="728" fill="url(#paint0_linear_28_6)"/></mask><g mask="url(#mask0_28_6)"><path d="M34.2666 50.0386C29.8013 50.0386 29.1958 62.375 28.439 78.3442C27.001 106.726 25.0332 146.611 -0.472174 146.535C-29.5347 146.535 -36.4219 113.234 -36.4219 77.5117C-36.3462 41.8647 -32.0322 12.2725 -0.472168 8.48828L-0.47217 50.0386C-8.34326 54.5796 -10.3867 65.0996 -10.3867 77.5117C-10.3867 89.8481 -8.34327 104.985 -0.472172 104.985C3.99316 104.985 4.67431 92.6484 5.43115 76.6792C6.86914 48.2978 8.83691 8.41259 34.2666 8.48828C63.3291 8.48828 70.292 41.7891 70.292 77.5117C70.0649 113.159 66.0537 142.751 34.2666 146.535L34.2666 104.985C42.2891 100.444 44.1811 89.9238 44.1811 77.5117C44.1811 65.1753 42.3647 50.0386 34.2666 50.0386ZM70.292 220.027C70.292 258.323 59.0908 289.429 20.6435 289.429L13.2266 289.429C-25.2207 289.58 -36.3462 258.247 -36.4219 220.027C-36.3462 181.731 -25.2207 150.398 13.2266 150.549L20.6435 150.549C59.1665 150.398 70.2163 181.731 70.292 220.027ZM15.7241 249.771L18.2217 249.771C34.7964 249.998 37.8237 236.223 38.0508 220.027C37.8237 203.755 34.7964 189.981 18.2217 190.208L15.7241 190.208C-0.926278 189.981 -3.95362 203.755 -4.18067 220.027C-3.95362 236.223 -0.92628 249.998 15.7241 249.771ZM8.23143 395.086L8.23143 435.728C-26.1289 433.231 -36.4219 403.109 -36.4219 366.478C-36.3462 328.333 -25.2964 296.849 13.2265 297L20.6435 297C59.0908 296.849 70.1406 328.333 70.292 366.478C70.2163 403.109 59.9233 433.231 25.6387 435.728L25.6387 395.086C35.6289 391.378 37.9751 380.101 37.9751 366.478C37.748 350.281 34.8721 336.507 18.146 336.734L15.6484 336.734C-0.926284 336.507 -3.95363 350.281 -4.18068 366.478C-4.18068 380.101 -1.75881 391.453 8.23143 395.086ZM67.7944 444.511L67.7944 484.169L-33.9243 484.169L-33.9243 444.511L67.7944 444.511ZM38.2021 562.277L8.15574 548.276L8.15574 576.203L38.2021 562.277ZM-34.0757 484.096L67.643 538.664L67.643 585.815L-34.0757 640.383L-34.0757 595.729L-16.6685 587.707L-16.6685 536.772L-34.0757 528.749L-34.0757 484.096ZM67.7944 640.386L67.7944 680.044L-1.68314 680.044L-1.68314 759.436L-33.9243 759.436L-33.9243 640.386L67.7944 640.386Z" fill="white" fill-opacity="0.2"/></g><defs><linearGradient id="paint0_linear_28_6" x1="78" y1="364" x2="-76" y2="364" gradientUnits="userSpaceOnUse"><stop stop-color="#D9D9D9" stop-opacity="0"/><stop offset="1" stop-color="#737373"/></linearGradient></defs></svg>